<svg width="392" height="122" viewBox="0 0 392 122" fill="none" xmlns="http://www.w3.org/2000/svg">
<path d="M115.3 121.7L101.3 107.7L95.0001 101.4C93.6001 102.6 91.7001 104 90.1001 105.1C88.6001 106.1 87.0001 107.1 85.4001 108C83.8001 108.9 82.1001 109.7 80.4001 110.4C78.7001 111.1 76.9001 111.8 75.1001 112.3C73.3001 112.9 71.5001 113.3 69.6001 113.7C67.7001 114.1 65.8001 114.4 63.9001 114.6C62.0001 114.8 60.0001 114.9 58.0001 114.9C56.0001 114.9 54.1001 114.8 52.1001 114.6C50.2001 114.4 48.3001 114.1 46.4001 113.7C44.5001 113.3 42.7001 112.8 40.9001 112.3C39.1001 111.8 37.3001 111.1 35.6001 110.4C33.9001 109.7 32.2001 108.9 30.6001 108C29.0001 107.1 27.4001 106.1 25.9001 105.1C24.4001 104.1 22.9001 103 21.5001 101.8C20.1001 100.6 18.7001 99.4 17.4001 98.1C16.1001 96.8 14.9001 95.4 13.7001 94C12.5001 92.6 11.4001 91.1 10.4001 89.6C9.40009 88.1 8.40009 86.5 7.50009 84.9C6.60009 83.3 5.8001 81.6 5.1001 79.9C4.4001 78.2 3.70009 76.4 3.20009 74.6C2.70009 72.8 2.20009 71 1.80009 69.1C1.40009 67.2 1.10009 65.3 0.900085 63.4C0.700085 61.5 0.600098 59.5 0.600098 57.5C0.600098 55.5 0.700085 53.6 0.900085 51.6C1.10009 49.7 1.40009 47.8 1.80009 45.9C2.20009 44 2.70009 42.2 3.20009 40.4C3.80009 38.6 4.4001 36.8 5.1001 35.1C5.8001 33.4 6.60009 31.7 7.50009 30.1C8.40009 28.5 9.40009 26.9 10.4001 25.4C11.4001 23.9 12.5001 22.4 13.7001 21C14.9001 19.6 16.1001 18.2 17.4001 16.9C18.7001 15.6 20.1001 14.4 21.5001 13.2C22.9001 12 24.4001 10.9 25.9001 9.89996C27.4001 8.89996 29.0001 7.89997 30.6001 6.99997C32.2001 6.09997 33.9001 5.29998 35.6001 4.59998C37.3001 3.89998 39.1001 3.19998 40.9001 2.69998C42.7001 2.09998 44.5001 1.69996 46.4001 1.29996C48.3001 0.899957 50.2001 0.599963 52.1001 0.399963C54.0001 0.199963 56.0001 0.0999756 58.0001 0.0999756C60.0001 0.0999756 61.9001 0.199963 63.9001 0.399963C65.9001 0.599963 67.7001 0.899957 69.6001 1.29996C71.5001 1.69996 73.3001 2.19998 75.1001 2.69998C76.9001 3.29998 78.7001 3.89998 80.4001 4.59998C82.1001 5.29998 83.8001 6.09997 85.4001 6.99997C87.0001 7.89997 88.6001 8.89996 90.1001 9.89996C91.6001 10.9 93.1001 12 94.5001 13.2C95.9001 14.4 97.3001 15.6 98.6001 16.9C99.9001 18.2 101.1 19.6 102.3 21C103.5 22.4 104.6 23.9 105.6 25.4C106.6 26.9 107.6 28.5 108.5 30.1C109.4 31.7 110.2 33.4 110.9 35.1C111.6 36.8 112.3 38.6 112.8 40.4C113.4 42.2 113.8 44 114.2 45.9C114.6 47.8 114.9 49.7 115.1 51.6C115.3 53.5 115.4 55.5 115.4 57.5C115.4 59.5 115.3 61.4 115.1 63.4C114.9 65.3 114.6 67.2 114.2 69.1C113.8 71 113.3 72.8 112.8 74.6C112.2 76.4 111.6 78.2 110.9 79.9C110.2 81.6 109.4 83.3 108.5 84.9C107.6 86.5 106.6 88.1 105.6 89.6C104.6 91.1 101.5 95.1 101.5 95.1L121.7 115.3C121.7 115.3 121.3 117.6 119.5 119.4C117.9 121 115.3 121.7 115.3 121.7ZM57.9001 13.1C56.4001 13.1 54.9001 13.2 53.4001 13.3C51.9001 13.5 50.4001 13.7 49.0001 14C47.6001 14.3 46.1001 14.7 44.7001 15.1C43.3001 15.5 41.9001 16 40.6001 16.6C39.3001 17.2 38.0001 17.8 36.7001 18.5C35.4001 19.2 34.2001 19.9 33.0001 20.7C31.8001 21.5 30.7001 22.4 29.6001 23.3C28.5001 24.2 27.4001 25.2 26.4001 26.2C25.4001 27.2 24.4001 28.3 23.5001 29.4C22.6001 30.5 21.7001 31.6 20.9001 32.8C20.1001 34 19.4001 35.2 18.7001 36.5C18.0001 37.8 17.4001 39.1 16.8001 40.4C16.2001 41.7 15.7001 43.1 15.3001 44.5C14.9001 45.9 14.5001 47.3 14.2001 48.8C13.9001 50.2 13.7001 51.7 13.5001 53.2C13.3001 54.7 13.3001 56.2 13.3001 57.7C13.3001 59.2 13.4001 60.7 13.5001 62.2C13.6001 63.7 13.9001 65.2 14.2001 66.6C14.5001 68 14.9001 69.5 15.3001 70.9C15.7001 72.3 16.2001 73.7 16.8001 75C17.4001 76.3 18.0001 77.6 18.7001 78.9C19.4001 80.2 20.1001 81.4 20.9001 82.6C21.7001 83.8 22.6001 84.9 23.5001 86C24.4001 87.1 25.4001 88.2 26.4001 89.2C27.4001 90.2 28.5001 91.2 29.6001 92.1C30.7001 93 31.8001 93.9 33.0001 94.7C34.2001 95.5 35.4001 96.2 36.7001 96.9C38.0001 97.6 39.3001 98.2 40.6001 98.8C41.9001 99.4 43.3001 99.9 44.7001 100.3C46.1001 100.7 47.5001 101.1 49.0001 101.4C50.5001 101.7 51.9001 101.9 53.4001 102.1C54.9001 102.3 56.4001 102.3 57.9001 102.3C59.4001 102.3 60.9001 102.2 62.4001 102.1C63.9001 101.9 65.4001 101.7 66.8001 101.4C68.2001 101.1 69.7001 100.7 71.1001 100.3C72.5001 99.9 73.9001 99.4 75.2001 98.8C76.5001 98.2 77.8001 97.6 79.1001 96.9C80.4001 96.2 81.6001 95.5 82.8001 94.7C84.0001 93.9 85.1001 93 86.2001 92.1C87.3001 91.2 88.4001 90.2 89.4001 89.2C90.4001 88.2 91.4001 87.1 92.3001 86C93.2001 84.9 94.1001 83.8 94.9001 82.6C95.7001 81.4 96.4001 80.2 97.1001 78.9C97.8001 77.6 98.4001 76.3 99.0001 75C99.6001 73.7 100.1 72.3 100.5 70.9C100.9 69.5 101.3 68.1 101.6 66.6C101.9 65.2 102.1 63.7 102.3 62.2C102.5 60.7 102.5 59.2 102.5 57.7C102.5 56.2 102.4 54.7 102.3 53.2C102.1 51.7 101.9 50.2 101.6 48.8C101.3 47.4 100.9 45.9 100.5 44.5C100.1 43.1 99.6001 41.7 99.0001 40.4C98.4001 39.1 97.8001 37.8 97.1001 36.5C96.4001 35.2 95.7001 34 94.9001 32.8C94.1001 31.6 93.2001 30.5 92.3001 29.4C91.4001 28.3 90.4001 27.2 89.4001 26.2C88.4001 25.2 87.3001 24.2 86.2001 23.3C85.1001 22.4 84.0001 21.5 82.8001 20.7C81.6001 19.9 80.4001 19.2 79.1001 18.5C77.8001 17.8 76.5001 17.2 75.2001 16.6C73.9001 16 72.5001 15.5 71.1001 15.1C69.7001 14.7 68.3001 14.3 66.8001 14C65.4001 13.7 63.9001 13.5 62.4001 13.3C60.9001 13.2 59.4001 13.1 57.9001 13.1Z" fill="#003B94"/>
<path d="M129.4 85.2999V37.8999H140.5V82.5999C140.5 96.3999 148 105.1 161.1 105.1C173.8 105.1 183.4 95.6999 183.4 81.6999L183.5 37.8999H195.5V114.1H183.4V100.6C178.4 108.7 170.7 115.2 157.9 115.2C139.9 115.1 129.4 103 129.4 85.2999Z" fill="#003B94"/>
<path d="M212.5 37.7999H225.7V114H212.5V37.7999Z" fill="#003B94"/>
<path d="M241.9 37.7999H253.4V51.8999C258.3 43.7999 266.1 37.2999 278.9 37.2999C296.9 37.2999 307.4 49.3999 307.4 67.0999V113.9H296.3V69.9999C296.3 56.1999 288.8 47.4999 275.7 47.4999C262.9 47.4999 253.4 56.8999 253.4 70.8999V114.1H241.9V37.7999Z" fill="#003B94"/>
<path d="M384.6 104.7C379.8 109 375.3 111 374.3 111.4C373 112 366.5 114.7 357.7 114.7C337.2 114.7 319.9 98.7999 319.9 75.7V75.3999C319.9 53.8999 335.7 36.7999 356.3 36.7999C378.9 36.7999 391.4 54.4 391.4 76.2C391.4 77.6 391.4 78.4999 391.3 79.7999H331.8C333.4 95.8999 344.8 105 358 105C362.2 105 365.8 104.3 369.1 103.1C373.4 101.5 376.4 99.0999 377.9 97.9999L384.6 104.7ZM379.8 70.5999C378.6 57.9999 370.9 46.2 356 46.2C343 46.2 333.2 56.9999 331.8 70.5999H379.8Z" fill="#003B94"/>
<path d="M53.1 52.7999L53 95.7C53 95.7 55.1 95.9999 57.7 95.9999C60.3 95.9999 62.2 95.7 62.2 95.7L61.6 68.2L81.2 87.8999C81.2 87.8999 83.3 86.2 84.9 84.7C86.5 83.1 87.8 81.3999 87.8 81.3999L67.8 61.4999L95.7 62.2C95.7 62.2 95.9 60.4999 96 58.4999C96.1 55.5999 95.8 52.9999 95.8 52.9999L53.1 52.7999Z" fill="#003B94"/>
<path d="M218.9 18.5C223.981 18.5 228.1 14.381 228.1 9.29996C228.1 4.21894 223.981 0.0999756 218.9 0.0999756C213.819 0.0999756 209.7 4.21894 209.7 9.29996C209.7 14.381 213.819 18.5 218.9 18.5Z" fill="#003B94"/>
</svg>
